<svg xmlns="http://www.w3.org/2000/svg" xmlns:xlink="http://www.w3.org/1999/xlink" version="1.1" id="Capa_1" x="0px" y="0px" viewBox="0 0 322.211 322.211" style="enable-background:new 0 0 322.211 322.211;" xml:space="preserve" width="512px" height="512px">
	<g>
		<path d="M52.007,121.327h25.687c1.933-3.938,4.314-7.608,7.13-10.913    C89.3,95.64,96.616,82.107,106.169,70.466C80.499,76.868,59.925,96.278,52.007,121.327z" fill="#FFFFFF"/>
		<path d="M118.204,58.001c9.553-8.646,20.466-15.818,32.502-20.932c-8.395-2.053-17.125-3.258-26.141-3.258    c-53.028,0-97.409,37.591-107.971,87.516h24.619C50.73,86.678,81.251,60.704,118.204,58.001z" fill="#FFFFFF"/>
		<path d="M122.237,68.24c-8.008,8.419-14.661,18.092-19.715,28.695c-3.67,7.703-6.558,15.836-8.366,24.393    h24.619c2.882-10.472,7.673-20.132,13.992-28.623c5.507-7.399,12.131-13.897,19.673-19.213c3.455-2.434,7.101-4.6,10.901-6.516    c9.243-4.66,19.386-7.781,30.145-8.855c2.84-0.28,5.722-0.436,8.64-0.436c39.781,0,73.285,27.024,83.351,63.649h24.619    c-10.561-49.931-54.943-87.522-107.97-87.522c-13.664,0-26.696,2.613-38.785,7.166c-10.979,4.141-21.147,9.917-30.145,17.137    C129.308,61.235,125.668,64.63,122.237,68.24z" fill="#FFFFFF"/>
		<path d="M204.449,68.24c-0.776-0.024-1.539-0.119-2.321-0.119c-9.845,0-19.237,1.939-27.883,5.364    c-3.801,1.504-7.429,3.318-10.901,5.382c-7.482,4.463-14.183,10.108-19.726,16.773c-6.223,7.488-11.039,16.188-14.04,25.681    h25.687c2.136-4.362,4.857-8.377,8.073-11.958c5.382-5.991,12.107-10.728,19.726-13.73c3.455-1.36,7.083-2.345,10.848-2.942    c2.679-0.424,5.412-0.71,8.21-0.71c7.882,0,15.329,1.808,22.036,4.947c10.806,5.06,19.577,13.694,24.822,24.393h25.687    C265.168,91.23,237.41,69.243,204.449,68.24z" fill="#FFFFFF"/>
		<path d="M161.105,288.4c88.978,0,161.105-72.128,161.105-161.105h-11.063h-0.066h-24.118h-10.717h-24.774    h-17.96h-24.118h-10.717h-24.774h-21.123h-24.774h-10.716H93.173H81.173h-5.961H50.438H39.721H15.603H0    C0,216.266,72.128,288.4,161.105,288.4z" fill="#FFFFFF"/>
	</g>
</svg>
